<?xml version="1.0"?>
<svg width="500" height="500" xmlns="http://www.w3.org/2000/svg" xmlns:svg="http://www.w3.org/2000/svg">
 <g class="layer">
  <title>Layer 1</title>
  <g id="freepik--Shadow--inject-5">
   <ellipse cx="250" cy="416.24" fill="#f5f5f5" id="freepik--path--inject-5" rx="193.89" ry="11.32"/>
  </g>
  <g id="freepik--oops--inject-5">
   <path d="m86.72,120.65c-1,-4.41 -0.56,-8.11 1.34,-11.13s5,-5 9.41,-6s8.22,-0.6 11.2,1.26s5,5 6,9.3a17.15,17.15 0 0 1 0.17,8.12a11.64,11.64 0 0 1 -3.53,5.76a15.53,15.53 0 0 1 -7.12,3.38a17.65,17.65 0 0 1 -7.88,0.27a11.72,11.72 0 0 1 -5.9,-3.5a15.67,15.67 0 0 1 -3.69,-7.46zm8.34,-1.86q0.93,4.08 2.85,5.52a5.89,5.89 0 0 0 8.3,-1.84c0.72,-1.39 0.73,-3.6 0.05,-6.61q-0.87,-3.81 -2.81,-5.22a5.36,5.36 0 0 0 -4.56,-0.81a5.2,5.2 0 0 0 -3.65,2.7c-0.74,1.47 -0.81,3.47 -0.18,6.26z" fill="#263238" id="svg_23"/>
   <path d="m118.59,117.35a10,10 0 0 1 1.35,-8.06a11.56,11.56 0 0 1 7.49,-4.75q5.87,-1.33 9.64,1.39a10.9,10.9 0 0 1 2.64,14.27q-2.34,3.57 -7.62,4.76a11.83,11.83 0 0 1 -8.16,-0.66a9.85,9.85 0 0 1 -5.34,-6.95zm7.51,-1.73a6.08,6.08 0 0 0 1.93,3.63a3.58,3.58 0 0 0 5.33,-1.19a6.33,6.33 0 0 0 0.14,-4.2a6,6 0 0 0 -1.91,-3.54a3.33,3.33 0 0 0 -2.88,-0.65a3.49,3.49 0 0 0 -2.42,1.87a6,6 0 0 0 -0.19,4.08z" fill="#263238" id="svg_24"/>
   <path d="m148.58,128.57l-6.13,-27l7,-1.6l0.66,2.89a9.5,9.5 0 0 1 2.11,-3.07a7.85,7.85 0 0 1 3.43,-1.69a7.21,7.21 0 0 1 6.74,1.62a12.81,12.81 0 0 1 3.83,6.93c0.74,3.25 0.52,5.91 -0.64,8a7.87,7.87 0 0 1 -5.33,3.91a8.57,8.57 0 0 1 -3.29,0.13a7.76,7.76 0 0 1 -2.94,-1.17l2.12,9.33l-7.56,1.72zm3.61,-18.86a5.29,5.29 0 0 0 1.76,3.22a3.19,3.19 0 0 0 2.72,0.56a2.82,2.82 0 0 0 2,-1.57a6,6 0 0 0 0,-3.86a5.61,5.61 0 0 0 -1.71,-3.28a2.91,2.91 0 0 0 -2.5,-0.6a3.12,3.12 0 0 0 -2.14,1.67a5.72,5.72 0 0 0 -0.13,3.86z" fill="#263238" id="svg_25"/>
   <path d="m169.43,110.3l7.28,-2.39a3.75,3.75 0 0 0 1.72,1.6a4.69,4.69 0 0 0 4.53,-1.1a1.49,1.49 0 0 0 0.37,-1.34a1.39,1.39 0 0 0 -1.13,-1.07a15.58,15.58 0 0 0 -3.4,0a33.63,33.63 0 0 1 -5.7,0a5.88,5.88 0 0 1 -3,-1.37a5.51,5.51 0 0 1 -1.39,-6.49a6.75,6.75 0 0 1 2.61,-2.79a16.78,16.78 0 0 1 5.13,-1.89a18.48,18.48 0 0 1 5.28,-0.64a6.91,6.91 0 0 1 3.16,1a8.86,8.86 0 0 1 2.54,2.62l-7,2.31a2.51,2.51 0 0 0 -1.23,-1.17a3.85,3.85 0 0 0 -2.27,-0.1a3.08,3.08 0 0 0 -1.75,0.87a1.35,1.35 0 0 0 -0.33,1.22a1.2,1.2 0 0 0 1,0.92a12.36,12.36 0 0 0 3.36,-0.07a22.42,22.42 0 0 1 5.82,-0.08a6.29,6.29 0 0 1 3.28,1.51a5.46,5.46 0 0 1 1.66,2.85a6.18,6.18 0 0 1 -0.27,3.53a7.08,7.08 0 0 1 -2.64,3.27a15.76,15.76 0 0 1 -5.78,2.31q-5.35,1.22 -8,0.21a7.07,7.07 0 0 1 -3.85,-3.72z" fill="#263238" id="svg_26"/>
   <path d="m193.85,85.57l8.21,0l0,6.3l-1.51,12.67l-5.08,0l-1.62,-12.65l0,-6.32zm0.4,20.88l7.66,0l0,6.78l-7.66,0l0,-6.78z" fill="#263238" id="svg_27"/>
  </g>
  <g id="freepik--error-404--inject-5">
   <path d="m128.68,171.58l-0.18,0c-4.5,-1.75 -7.19,-3.45 -8.59,-5.5a5.14,5.14 0 0 1 -3.23,-0.44a6.5,6.5 0 0 1 -2.79,-2.62a2.54,2.54 0 0 1 -2.42,0.37a6.14,6.14 0 0 1 -3,-2.41a2.23,2.23 0 0 1 -1.56,0.43c-3,-0.24 -7,-6.16 -7.29,-12.46a0.52,0.52 0 0 1 0.48,-0.53a0.5,0.5 0 0 1 0.52,0.48c0.28,6 4.11,11.33 6.38,11.51a1.26,1.26 0 0 0 0.93,-0.27a12.28,12.28 0 0 1 -1,-9.42c0.86,-3 1.62,-4.18 2.54,-4c1.72,0.43 1.49,7 0.58,11.29a6.14,6.14 0 0 1 -0.84,2.18a5.4,5.4 0 0 0 2.54,2.21a1.58,1.58 0 0 0 1.67,-0.35c-0.78,-1.93 -1,-4.57 0.12,-7.93c1.4,-4.43 2,-4.55 2.31,-4.63a0.66,0.66 0 0 1 0.64,0.22c0.93,1.05 -0.18,7.93 -1.34,11.33a5,5 0 0 1 -0.56,1.16a5.56,5.56 0 0 0 2.49,2.5a4.41,4.41 0 0 0 2.28,0.43c-0.09,-0.19 -0.17,-0.38 -0.25,-0.58c-0.79,-2.15 -0.4,-4.62 1.19,-7.58c1.05,-1.95 1.91,-2.87 2.71,-2.87l0,0a1.11,1.11 0 0 1 1,0.66c0.87,1.61 0.24,6.92 -1.48,9.56a4,4 0 0 1 -1.62,1.4c1.34,1.76 3.89,3.31 8,4.89a0.49,0.49 0 0 1 0.29,0.64a0.51,0.51 0 0 1 -0.52,0.33zm-5.68,-16.47s-0.57,0 -1.83,2.35c-1.45,2.68 -1.82,4.89 -1.13,6.75a5.06,5.06 0 0 0 0.3,0.67a2.88,2.88 0 0 0 1.32,-1.1c1.4,-2.14 2.07,-6.54 1.55,-8.26c-0.07,-0.35 -0.21,-0.41 -0.21,-0.41zm-7.18,-4.21a23.33,23.33 0 0 0 -1.34,3.53a11.38,11.38 0 0 0 -0.38,6.55l0.09,-0.26a32.79,32.79 0 0 0 1.66,-9.82l-0.03,0zm-6.58,-3.15c-0.17,0.15 -0.66,0.78 -1.35,3.22a11.24,11.24 0 0 0 0.72,8.24a6.18,6.18 0 0 0 0.45,-1.4c1.07,-4.91 0.77,-9.35 0.21,-10.06l-0.03,0z" fill="#263238" id="svg_28"/>
   <path d="m166.7,224a9,9 0 0 1 -4.56,-1.19a0.51,0.51 0 0 1 -0.18,-0.69a0.49,0.49 0 0 1 0.68,-0.17c3.57,2.09 8.18,0.63 9.13,-0.9a0.88,0.88 0 0 0 0.15,-0.67a8.12,8.12 0 0 1 -5.13,-1.46c-2.55,-1.59 -2.75,-2.07 -2.73,-2.45a0.61,0.61 0 0 1 0.34,-0.52c1,-0.5 5.51,1.57 7.39,2.81a3.63,3.63 0 0 1 0.62,0.52a3.55,3.55 0 0 0 1.9,-1.14a2.87,2.87 0 0 0 0.59,-1.13l-0.2,0c-1.6,0.16 -3.2,-0.53 -4.91,-2.11c-1.18,-1.08 -1.63,-1.83 -1.48,-2.42a0.9,0.9 0 0 1 0.72,-0.65c1.38,-0.35 4.8,1.11 6.19,2.64a2.68,2.68 0 0 1 0.64,1.18c1.31,-0.61 2.69,-2 4.32,-4.27a0.5,0.5 0 0 1 0.7,-0.12a0.51,0.51 0 0 1 0.12,0.7c-1.89,2.64 -3.47,4.14 -5.05,4.75a3.69,3.69 0 0 1 -0.87,2a4.6,4.6 0 0 1 -2.18,1.41a1.84,1.84 0 0 1 -0.28,1.39c-0.84,1.43 -3.26,2.49 -5.92,2.49zm-0.89,-6.94c0.34,0.25 0.82,0.58 1.51,1a8,8 0 0 0 3.6,1.32a24.67,24.67 0 0 0 -5.11,-2.32zm3.49,-4.25a4.33,4.33 0 0 0 1.17,1.39c1.48,1.37 2.83,2 4.13,1.84l0.32,0a1.81,1.81 0 0 0 -0.44,-0.83c-1.4,-1.58 -4.48,-2.56 -5.18,-2.4z" fill="#263238" id="svg_29"/>
   <path d="m179.94,222.63l-15.58,2.83l-14.15,-77.22l-30.06,5.46l-49,87l5.26,28.71l62.85,-11.41l4.3,23.48l30.06,-5.48l-4.3,-23.48l15.58,-2.83l-4.96,-27.06zm-78.85,14.37l26,-45.57l7.25,39.54l-33.25,6.03z" fill="#407BFF" id="svg_30"/>
   <path d="m305.43,143a58.84,58.84 0 0 0 -3.2,-14.22a46.31,46.31 0 0 0 -7,-12.19a40.37,40.37 0 0 0 -12.7,-10.36q-8,-4.39 -21.22,-6.11q-27.45,-3.58 -42.78,9.74t-20.2,51a139.33,139.33 0 0 0 -1,28.34q1,13 4.78,20.93a43.74,43.74 0 0 0 14.65,17.78q9.47,6.65 26,8.79q29.38,3.83 43.57,-11.29t18.8,-51.1a129.48,129.48 0 0 0 0.3,-31.31z" fill="#407BFF" id="svg_31"/>
   <path d="m251.77,226.43c-2.41,-0.08 -5,-0.3 -7.61,-0.64c-9.16,-1.19 -16.24,-3.51 -21.06,-6.89a32.66,32.66 0 0 1 -11,-13.4l-0.05,-0.11c-1.92,-4 -3.18,-9.75 -3.73,-17a128.2,128.2 0 0 1 0.92,-26.1c3.57,-27.72 10.94,-39.29 16.49,-44.11c6.48,-5.62 15.23,-8.16 26.73,-7.76c2.36,0.08 4.86,0.29 7.43,0.62c7.38,1 13.23,2.6 17.37,4.86a29.79,29.79 0 0 1 9.31,7.49a35.25,35.25 0 0 1 5.35,9.27a47.78,47.78 0 0 1 2.56,11.55a118.67,118.67 0 0 1 -0.29,28.72c-2.77,21.54 -8.13,36.68 -15.92,45c-5.78,6.16 -14.45,9 -26.51,8.54l0.01,-0.04z" fill="#263238" id="svg_32"/>
   <path d="m271.34,143.29l0.13,-3.79l-2.33,-0.76a22.82,22.82 0 0 0 -0.62,-3.8l2,-1.46l-1.34,-3.56l-2.44,0.2a22.82,22.82 0 0 0 -2,-3.27l1.26,-2.11l-2.6,-2.77l-2.18,1.12a23.17,23.17 0 0 0 -3.12,-2.26l0.35,-2.42l-3.46,-1.57l-1.58,1.86a23.26,23.26 0 0 0 -3.75,-0.88l-0.59,-2.37l-3.8,-0.13l-0.75,2.32a23.54,23.54 0 0 0 -3.8,0.62l-1.47,-2l-3.56,1.33l0.2,2.44a22.94,22.94 0 0 0 -3.27,2l-2.1,-1.27l-2.78,2.59l1.12,2.19a21.78,21.78 0 0 0 -2.25,3.13l-2.42,-0.37l-1.58,3.46l1.87,1.58a21.43,21.43 0 0 0 -0.88,3.76l-2.38,0.6l-0.13,3.78l2.33,0.76a22.6,22.6 0 0 0 0.62,3.81l-2,1.45l1.34,3.56l2.44,-0.2a21.51,21.51 0 0 0 2,3.27l-1.27,2.11l2.6,2.77l2.18,-1.11a23.1,23.1 0 0 0 3.12,2.25l-0.36,2.42l3.46,1.57l1.59,-1.85a23.12,23.12 0 0 0 3.76,0.87l0.59,2.38l3.79,0.13l0.75,-2.33a22.6,22.6 0 0 0 3.81,-0.62l1.45,2l3.56,-1.33l-0.19,-2.43a24.89,24.89 0 0 0 3.27,-2l2.1,1.26l2.78,-2.59l-1.11,-2.19a21.62,21.62 0 0 0 2.24,-3.12l2.42,0.36l1.58,-3.46l-1.86,-1.58a22.23,22.23 0 0 0 0.87,-3.75l2.39,-0.6zm-25.6,12.27a15,15 0 1 1 15.54,-14.51a15,15 0 0 1 -15.54,14.51z" fill="#407BFF" id="svg_33"/>
   <path d="m287.12,212.87l0.28,-2.56l-1.54,-0.62a16,16 0 0 0 -0.22,-2.6l1.39,-0.89l-0.71,-2.47l-1.66,0a14.82,14.82 0 0 0 -1.19,-2.31l0.94,-1.36l-1.6,-2l-1.53,0.64a16.07,16.07 0 0 0 -2,-1.68l0.37,-1.62l-2.25,-1.24l-1.18,1.19a15.87,15.87 0 0 0 -2.48,-0.79l-0.28,-1.63l-2.55,-0.29l-0.63,1.54a14.85,14.85 0 0 0 -2.59,0.24l-0.89,-1.42l-2.47,0.73l0,1.66a14.9,14.9 0 0 0 -2.31,1.2l-1.36,-1l-2,1.6l0.64,1.53a16.13,16.13 0 0 0 -1.67,2l-1.62,-0.36l-1.23,2.25l1.18,1.17a15,15 0 0 0 -0.79,2.49l-1.64,0.27l-0.27,2.55l1.53,0.64a14.73,14.73 0 0 0 0.23,2.58l-1.41,0.89l0.72,2.47l1.67,0a15.22,15.22 0 0 0 1.2,2.3l-1,1.36l1.6,2l1.55,-0.65a14.55,14.55 0 0 0 2,1.67l-0.35,1.65l2.25,1.23l1.17,-1.17a16.12,16.12 0 0 0 2.48,0.77l0.29,1.64l2.55,0.28l0.62,-1.53a16.22,16.22 0 0 0 2.64,-0.22l0.89,1.41l2.46,-0.72l0,-1.66a16.45,16.45 0 0 0 2.32,-1.2l1.34,1l2,-1.61l-0.65,-1.53a16.28,16.28 0 0 0 1.69,-2l1.61,0.36l1.24,-2.25l-1.18,-1.16a16.47,16.47 0 0 0 0.77,-2.48l1.63,-0.29zm-12.87,-1a4.46,4.46 0 1 1 -1.77,-6.05a4.47,4.47 0 0 1 1.77,6.05z" fill="#407BFF" id="svg_34" opacity="0.3"/>
   <path d="m301.29,169.65l-3,-2.06l0,0a16.59,16.59 0 0 0 -1.2,-3.1l0.76,-3l-4.32,-4.63l-3,0.56a17,17 0 0 0 -3,-1.41l0,0l-1.85,-3.12l-6.33,-0.21l-2.06,3l0,0a15.92,15.92 0 0 0 -3.1,1.2l-3,-0.77l-4.63,4.33l0.56,3l0,0a15.68,15.68 0 0 0 -1.41,3l-3.11,1.85l-0.22,6.33l3,2.06a16.11,16.11 0 0 0 1.2,3.12l0,0l-0.76,3l4.32,4.63l3,-0.55a17.16,17.16 0 0 0 3,1.41l0,0l1.84,3.11l6.34,0.22l2.05,-3a16.61,16.61 0 0 0 3.13,-1.2l0,0l3,0.76l4.63,-4.32l-0.55,-3a16.7,16.7 0 0 0 1.41,-3l0,0l3.11,-1.85l0.19,-6.36zm-19.73,9.62a7.12,7.12 0 1 1 7.36,-6.87a7.13,7.13 0 0 1 -7.36,6.87z" fill="#fff" id="svg_35"/>
   <path d="m323,119.12l0.52,-1.25l0,0a6.7,6.7 0 0 0 1,-0.69l1.16,0l1.36,-2l-0.44,-1.07a6.18,6.18 0 0 0 0.4,-1.11l0,0l1,-0.92l-0.42,-2.35l-1.26,-0.52l0,0a6.35,6.35 0 0 0 -0.69,-1l0,-1.16l-1.95,-1.36l-1.08,0.45l0,0a5.55,5.55 0 0 0 -1.22,-0.28l-0.92,-1l-2.34,0.42l-0.53,1.26a6.5,6.5 0 0 0 -1.05,0.68l0,0l-1.15,0l-1.36,2l0.44,1.07a6.18,6.18 0 0 0 -0.28,1.22l0,0l-1,0.93l0.42,2.34l1.26,0.52a5.73,5.73 0 0 0 0.68,1l0,0l0,1.15l2,1.36l1.07,-0.44a6.43,6.43 0 0 0 1.23,0.27l0,0l0.92,1l2.23,-0.52zm-5,-6.48a2.68,2.68 0 1 1 3.11,2.16a2.69,2.69 0 0 1 -3.11,-2.16z" fill="#407BFF" id="svg_36"/>
   <path d="m295.61,112.49l-0.77,-0.65a19.9,19.9 0 0 1 6,-5l0.47,0.88a18.87,18.87 0 0 0 -5.7,4.77z" fill="#407BFF" id="svg_37"/>
   <path d="m303.59,106.8l-0.39,-0.92a23.92,23.92 0 0 1 11.74,-1.88l-0.1,1a22.79,22.79 0 0 0 -11.25,1.8z" fill="#407BFF" id="svg_38"/>
   <path d="m301.7,113.72l-0.82,-0.56a16.74,16.74 0 0 1 9.87,-6.39l0.19,1a15.72,15.72 0 0 0 -9.24,5.95z" fill="#407BFF" id="svg_39"/>
   <path d="m235.34,210a0.52,0.52 0 0 1 -0.36,-0.16l-2.09,-2.16a17.49,17.49 0 0 1 -3.15,-0.58l-3.27,1.44a0.49,0.49 0 0 1 -0.47,0l-5.48,-3.63a0.49,0.49 0 0 1 -0.22,-0.43l0,-3.56a17.2,17.2 0 0 1 -1.76,-2.68l-2.81,-1.08a0.5,0.5 0 0 1 -0.31,-0.37l-1.3,-6.44a0.5,0.5 0 0 1 0.14,-0.46l2.16,-2.09a18.78,18.78 0 0 1 0.58,-3.15l-1.44,-3.27a0.49,0.49 0 0 1 0,-0.47l3.63,-5.48a0.47,0.47 0 0 1 0.43,-0.22l3.56,0.05a16.52,16.52 0 0 1 2.68,-1.76l1.09,-2.81a0.49,0.49 0 0 1 0.36,-0.31l6.44,-1.3a0.49,0.49 0 0 1 0.46,0.14l2.09,2.16a17.76,17.76 0 0 1 3.16,0.58l3.26,-1.44a0.51,0.51 0 0 1 0.48,0l5.47,3.63a0.54,0.54 0 0 1 0.23,0.43l-0.06,3.56a17.26,17.26 0 0 1 1.77,2.68l2.8,1.09a0.49,0.49 0 0 1 0.31,0.36l1.31,6.44a0.52,0.52 0 0 1 -0.14,0.46l-2.17,2.1a18,18 0 0 1 -0.58,3.14l1.44,3.27a0.51,0.51 0 0 1 0,0.48l-3.58,5.43a0.51,0.51 0 0 1 -0.42,0.22l-3.57,-0.05a18.38,18.38 0 0 1 -2.67,1.76l-1.09,2.81a0.49,0.49 0 0 1 -0.37,0.31l-6.44,1.36l-0.1,0zm-5.63,-4a0.36,0.36 0 0 1 0.14,0a16.66,16.66 0 0 0 3.31,0.61a0.56,0.56 0 0 1 0.32,0.15l2,2.1l5.9,-1.19l1.06,-2.74a0.55,0.55 0 0 1 0.24,-0.26a16.05,16.05 0 0 0 2.81,-1.85a0.47,0.47 0 0 1 0.33,-0.11l3.47,0.05l3.32,-5l-1.4,-3.18a0.5,0.5 0 0 1 0,-0.34a17.49,17.49 0 0 0 0.61,-3.31a0.51,0.51 0 0 1 0.15,-0.32l2.1,-2l-1.19,-5.9l-2.73,-1.06a0.49,0.49 0 0 1 -0.27,-0.24a16.43,16.43 0 0 0 -1.85,-2.81a0.52,0.52 0 0 1 -0.11,-0.32l0,-3.48l-5,-3.32l-3.17,1.4a0.52,0.52 0 0 1 -0.35,0a17,17 0 0 0 -3.32,-0.61a0.56,0.56 0 0 1 -0.32,-0.15l-2,-2.1l-5.9,1.2l-1.05,2.78a0.51,0.51 0 0 1 -0.23,0.27a15.94,15.94 0 0 0 -2.82,1.85a0.43,0.43 0 0 1 -0.32,0.11l-3.47,-0.05l-3.33,5l1.4,3.18a0.5,0.5 0 0 1 0,0.43a17.13,17.13 0 0 0 -0.58,3.23a0.5,0.5 0 0 1 -0.15,0.32l-2.1,2l1.2,5.9l2.72,1.06a0.55,0.55 0 0 1 0.28,0.26a16.22,16.22 0 0 0 1.84,2.79a0.48,0.48 0 0 1 0.11,0.32l0,3.48l5,3.32l3.18,-1.4a0.52,0.52 0 0 1 0.17,-0.07zm4.91,-3.24a13.32,13.32 0 0 1 -11.09,-20.68l0,0a13.33,13.33 0 1 1 11.09,20.68zm-10.25,-20.13a12.32,12.32 0 1 0 17.08,-3.46a12.27,12.27 0 0 0 -17.08,3.46z" fill="#fff" id="svg_40"/>
   <path d="m425.83,231.65l-15.7,-2.12l10.38,-77.81l-30.28,-4.08l-73.45,67.62l-3.86,28.93l63.29,8.54l-3.16,23.67l30.28,4.08l3.16,-23.66l15.7,2.12l3.64,-27.29zm-79.42,-10.72l38.76,-35.33l-5.32,39.84l-33.44,-4.51z" fill="#407BFF" id="svg_41"/>
   <path d="m394.13,279.74l-0.13,0a0.5,0.5 0 0 1 -0.4,-0.58l23.4,-127.94a0.51,0.51 0 0 1 0.58,-0.4a0.5,0.5 0 0 1 0.4,0.58l-23.35,127.93a0.51,0.51 0 0 1 -0.5,0.41z" fill="#263238" id="svg_42"/>
   <path d="m414.83,153.37a0.82,0.82 0 0 1 -1.64,-0.06a0.82,0.82 0 0 1 1.64,0.06z" fill="#263238" id="svg_43"/>
   <path d="m411.5,170.67a0.82,0.82 0 1 1 -0.79,-0.85a0.82,0.82 0 0 1 0.79,0.85z" fill="#263238" id="svg_44"/>
   <path d="m408.17,188a0.82,0.82 0 0 1 -0.85,0.79a0.81,0.81 0 0 1 -0.79,-0.84a0.82,0.82 0 0 1 0.85,-0.8a0.83,0.83 0 0 1 0.79,0.85z" fill="#263238" id="svg_45"/>
   <path d="m401.61,206a0.82,0.82 0 0 1 -1.63,0a0.82,0.82 0 1 1 1.63,0z" fill="#263238" id="svg_46"/>
   <path d="m401.5,222.57a0.81,0.81 0 0 1 -0.85,0.79a0.82,0.82 0 1 1 0.85,-0.79z" fill="#263238" id="svg_47"/>
   <path d="m398.17,239.87a0.82,0.82 0 1 1 -0.79,-0.84a0.82,0.82 0 0 1 0.79,0.84z" fill="#263238" id="svg_48"/>
   <path d="m394.84,257.17a0.83,0.83 0 0 1 -0.85,0.8a0.82,0.82 0 0 1 -0.79,-0.85a0.82,0.82 0 0 1 1.64,0.05z" fill="#263238" id="svg_49"/>
   <path d="m391.5,274.48a0.82,0.82 0 1 1 -0.79,-0.85a0.81,0.81 0 0 1 0.79,0.85z" fill="#263238" id="svg_50"/>
   <path d="m400.79,206.45a0.49,0.49 0 0 1 -0.48,-0.39a0.5,0.5 0 0 1 0.38,-0.6l2.48,-0.53a0.5,0.5 0 0 1 0.6,0.39a0.5,0.5 0 0 1 -0.39,0.59l-2.48,0.53l-0.11,0.01z" fill="#263238" id="svg_51"/>
   <path d="m409.08,197.24a85.06,85.06 0 0 0 -3,9.36c-0.75,3.53 -0.79,11.43 -0.79,11.43" fill="#263238" id="svg_52"/>
   <path d="m405.29,218.53l0,0a0.52,0.52 0 0 1 -0.5,-0.51c0,-0.32 0.06,-8 0.81,-11.52a84.22,84.22 0 0 1 3,-9.44a0.5,0.5 0 1 1 0.93,0.36a84.37,84.37 0 0 0 -3,9.29c-0.73,3.44 -0.78,11.24 -0.79,11.32a0.5,0.5 0 0 1 -0.45,0.5z" fill="#263238" id="svg_53"/>
  </g>
  <g id="freepik--Character--inject-5">
   <path d="m222.45,304.84c1.39,-22.4 -1.16,-63.13 40.95,-57.73c45.13,5.77 32.22,58.55 32.22,58.55l-73.17,-0.82z" fill="#263238" id="svg_54"/>
   <circle cx="251.51" cy="273" fill="#fff" id="svg_55" r="18.38"/>
   <path d="m253.93,254.65c-8.71,-1.48 -18,4.93 -18.93,11.43l34.51,3.18c-1.22,-7.41 -8.68,-13.43 -15.58,-14.61z" fill="#263238" id="svg_56"/>
   <path d="m265.58,272.54c-0.25,4.81 -2.87,8.58 -5.85,8.42s-5.2,-4.17 -5,-9s2.87,-8.58 5.85,-8.42s5.24,4.2 5,9z" fill="#263238" id="svg_57"/>
   <path d="m251.51,292.38a19.38,19.38 0 1 1 19.38,-19.38a19.4,19.4 0 0 1 -19.38,19.38zm0,-36.75a17.38,17.38 0 1 0 17.38,17.37a17.39,17.39 0 0 0 -17.38,-17.37z" fill="#407BFF" id="svg_58"/>
   <path d="m290.49,304.28l-0.12,0a0.49,0.49 0 0 1 -0.37,-0.6c0,-0.13 3.22,-13.69 -0.09,-27.4a0.5,0.5 0 1 1 1,-0.24c3.37,14 0.12,27.74 0.09,27.87a0.5,0.5 0 0 1 -0.51,0.37z" fill="#fff" id="svg_59" opacity="0.3"/>
   <path d="m287.7,268.76a0.52,0.52 0 0 1 -0.46,-0.29a34.93,34.93 0 0 0 -4.74,-7.66a0.5,0.5 0 0 1 0.07,-0.7a0.5,0.5 0 0 1 0.71,0.07a36.47,36.47 0 0 1 4.87,7.87a0.49,0.49 0 0 1 -0.24,0.66a0.54,0.54 0 0 1 -0.21,0.05z" fill="#fff" id="svg_60" opacity="0.3"/>
   <path d="m128.73,409.92l-0.37,0a5,5 0 1 1 0.28,-10l0.09,0c2.89,0 9.84,-3.51 24.38,-26.43a5,5 0 0 1 7.51,-1.09a207.46,207.46 0 0 0 37.14,25.48a5,5 0 1 1 -4.52,8.91a212.75,212.75 0 0 1 -34.8,-23.14c-12.19,18.35 -21.23,26.27 -29.71,26.27z" fill="#263238" id="svg_61"/>
   <path d="m159.67,371.5l-0.43,0a3,3 0 0 1 -2.54,-3.39c0.71,-5 -0.17,-23.63 -6.48,-38.13a3,3 0 0 1 1.06,-3.68c13.7,-9.33 42.88,-10.45 44.12,-10.49a3,3 0 1 1 0.2,6c-0.27,0 -25.78,1 -38.88,8.2c5.58,14.44 6.85,32.43 5.92,38.94a3,3 0 0 1 -2.97,2.55z" fill="#263238" id="svg_62"/>
   <path d="m164.71,367.62c-2,-4.71 -11,-4.18 -16.27,-0.14c-2.82,2.15 -6.64,8.64 -7,11a3.54,3.54 0 0 0 4,4.24c3.45,-0.3 8.18,-5.31 8.18,-5.31c-3.15,3.09 0.92,5.27 7,0.8c3.32,-2.49 6.32,-5.32 4.09,-10.59z" fill="#407BFF" id="svg_63"/>
   <path d="m336.71,306.16a0.32,0.32 0 0 1 -0.14,0a0.49,0.49 0 0 1 -0.34,-0.62c1.33,-4.64 2.78,-7.47 4.69,-9a5.18,5.18 0 0 1 0.16,-3.26a6.45,6.45 0 0 1 2.36,-3a2.54,2.54 0 0 1 -0.59,-2.38a6.18,6.18 0 0 1 2.14,-3.16a2.24,2.24 0 0 1 -0.57,-1.51c0,-3 5.51,-7.52 11.76,-8.38a0.5,0.5 0 0 1 0.14,1c-5.94,0.81 -10.92,5.11 -10.9,7.38a1.31,1.31 0 0 0 0.36,0.91a12.24,12.24 0 0 1 9.28,-1.87c3.07,0.59 4.32,1.24 4.18,2.17c-0.28,1.75 -6.81,2.12 -11.19,1.6a6.18,6.18 0 0 1 -2.25,-0.65a5.38,5.38 0 0 0 -2,2.73a1.57,1.57 0 0 0 0.49,1.64c1.86,-1 4.47,-1.36 7.92,-0.6c4.53,1 4.7,1.55 4.81,1.88a0.67,0.67 0 0 1 -0.17,0.67c-0.95,1 -7.9,0.53 -11.39,-0.33a4.91,4.91 0 0 1 -1.21,-0.45a5.45,5.45 0 0 0 -2.26,2.71a4.23,4.23 0 0 0 -0.23,2.3a5.77,5.77 0 0 1 0.55,-0.29c2.07,-1 4.57,-0.82 7.66,0.5c2,0.87 3,1.65 3.1,2.44a1.12,1.12 0 0 1 -0.57,1c-1.53,1 -6.87,0.86 -9.65,-0.62a4,4 0 0 1 -1.54,-1.49c-1.63,1.5 -2.95,4.17 -4.15,8.36a0.51,0.51 0 0 1 -0.45,0.32zm5.42,-9.33a3,3 0 0 0 1.22,1.22c2.26,1.2 6.7,1.47 8.36,0.8c0.34,-0.14 0.39,-0.25 0.39,-0.25s-0.05,-0.56 -2.5,-1.61c-2.8,-1.2 -5,-1.37 -6.83,-0.52a5.79,5.79 0 0 0 -0.64,0.36zm3.34,-6.57l0.25,0.07a33.09,33.09 0 0 0 9.94,0.75a21.7,21.7 0 0 0 -3.64,-1a11.38,11.38 0 0 0 -6.55,0.18zm1.26,-5.62a5.92,5.92 0 0 0 1.43,0.32c5,0.59 9.39,-0.1 10,-0.73c-0.17,-0.15 -0.84,-0.58 -3.32,-1.05a11.25,11.25 0 0 0 -8.11,1.46z" fill="#263238" id="svg_64"/>
   <path d="m206.53,408.25c0.66,-0.21 0.44,-0.85 -0.3,-0.85l-13.54,0c-25.78,-2.73 -43.79,0.93 -32.44,1.79s-0.8,0.68 -9.09,3.82s61.65,3.93 68,0c5.84,-3.62 -21.77,-1.83 -12.63,-4.76z" fill="#263238" id="svg_65"/>
   <polygon fill="#407BFF" id="svg_66" points="303.47 412.24 185.67 408.33 180.78 294.11 319.89 297.22 303.47 412.24"/>
   <path d="m222.45,410.05a0.5,0.5 0 0 1 -0.5,-0.46l-9.44,-114.72a0.51,0.51 0 0 1 0.46,-0.54a0.52,0.52 0 0 1 0.54,0.46l9.49,114.72a0.5,0.5 0 0 1 -0.46,0.54l-0.09,0z" fill="#263238" id="svg_67"/>
   <polygon fill="#407BFF" id="svg_68" points="303.47 412.24 335.13 407.42 345.1 301.21 319.89 297.22 303.47 412.24"/>
   <polygon id="svg_69" opacity="0.2" points="303.47 412.24 335.13 407.42 345.1 301.21 319.89 297.22 303.47 412.24"/>
   <path d="m195.73,386.32l-2.9,-67.87a12.27,12.27 0 0 1 12.53,-12.79l88.06,2a12.27,12.27 0 0 1 11.87,14l-9.76,68.34a12.27,12.27 0 0 1 -12.53,10.55l-75.39,-2.5a12.27,12.27 0 0 1 -11.88,-11.73z" fill="#263238" id="svg_70"/>
   <path d="m205.25,326.49l13.62,0.43l-0.11,3.51l-8.53,-0.27l-0.08,2.62l7.91,0.25l-0.11,3.36l-7.91,-0.26l-0.1,3.25l8.77,0.28l-0.12,3.72l-13.87,-0.44l0.53,-16.45z" fill="#fff" id="svg_71"/>
   <path d="m221.4,343.47l0.52,-16.45l8.48,0.27a12.22,12.22 0 0 1 3.59,0.52a3.81,3.81 0 0 1 2,1.56a4.64,4.64 0 0 1 -1.64,6.59a6.16,6.16 0 0 1 -1.81,0.6a5.12,5.12 0 0 1 1.31,0.64a5.51,5.51 0 0 1 0.78,0.9a6.43,6.43 0 0 1 0.68,1l2.31,4.85l-5.74,-0.19l-2.56,-5.11a3.94,3.94 0 0 0 -0.88,-1.3a2.22,2.22 0 0 0 -1.23,-0.42l-0.45,0l-0.21,6.67l-5.15,-0.13zm5.42,-9.62l2.14,0.07a8.63,8.63 0 0 0 1.35,-0.19a1.35,1.35 0 0 0 0.85,-0.49a1.57,1.57 0 0 0 0.35,-0.94a1.54,1.54 0 0 0 -0.47,-1.24a3.1,3.1 0 0 0 -1.88,-0.49l-2.24,-0.07l-0.1,3.35z" fill="#fff" id="svg_72"/>
   <path d="m239.28,344l0.52,-16.45l8.47,0.27a12.16,12.16 0 0 1 3.59,0.52a3.77,3.77 0 0 1 2,1.56a4.45,4.45 0 0 1 0.68,2.69a4.42,4.42 0 0 1 -2.31,3.9a6.27,6.27 0 0 1 -1.81,0.6a5,5 0 0 1 1.3,0.64a4.84,4.84 0 0 1 0.79,0.89a6.87,6.87 0 0 1 0.68,1l2.31,4.84l-5.74,-0.18l-2.56,-5.11a4,4 0 0 0 -0.88,-1.3a2.08,2.08 0 0 0 -1.24,-0.42l-0.44,0l-0.22,6.68l-5.14,-0.13zm5.41,-9.62l2.15,0.06a7.21,7.21 0 0 0 1.35,-0.18a1.31,1.31 0 0 0 0.84,-0.49a1.46,1.46 0 0 0 0.35,-0.94a1.52,1.52 0 0 0 -0.46,-1.24a3,3 0 0 0 -1.89,-0.49l-2.23,-0.07l-0.11,3.35z" fill="#fff" id="svg_73"/>
   <path d="m256.32,336.36a7.79,7.79 0 0 1 8.76,-8.25a8.6,8.6 0 0 1 6.26,2.41a8.32,8.32 0 0 1 2,6.25a10.21,10.21 0 0 1 -1.12,4.7a7,7 0 0 1 -2.9,2.78a9.22,9.22 0 0 1 -4.61,0.88a10.58,10.58 0 0 1 -4.58,-1a7,7 0 0 1 -2.86,-2.9a9.21,9.21 0 0 1 -0.95,-4.87zm5.08,0.18a5.56,5.56 0 0 0 0.81,3.61a3.52,3.52 0 0 0 5.06,0.19a6.13,6.13 0 0 0 1,-3.8a5.17,5.17 0 0 0 -0.83,-3.43a3.22,3.22 0 0 0 -2.44,-1.11a3.1,3.1 0 0 0 -2.51,1a5.56,5.56 0 0 0 -1.09,3.54z" fill="#fff" id="svg_74"/>
   <path d="m275.91,345.21l0.52,-16.46l8.47,0.27a12.51,12.51 0 0 1 3.59,0.52a3.87,3.87 0 0 1 2,1.56a4.49,4.49 0 0 1 0.68,2.69a4.42,4.42 0 0 1 -2.31,3.91a6.61,6.61 0 0 1 -1.81,0.59a5,5 0 0 1 1.3,0.65a4.84,4.84 0 0 1 0.79,0.89a6.43,6.43 0 0 1 0.68,1l2.31,4.85l-5.74,-0.18l-2.56,-5.12a3.91,3.91 0 0 0 -0.88,-1.29a2.16,2.16 0 0 0 -1.24,-0.43l-0.44,0l-0.22,6.68l-5.14,-0.13zm5.41,-9.63l2.15,0.07a7.21,7.21 0 0 0 1.35,-0.18a1.35,1.35 0 0 0 0.84,-0.49a1.48,1.48 0 0 0 0.35,-1a1.5,1.5 0 0 0 -0.46,-1.23a3,3 0 0 0 -1.89,-0.49l-2.23,-0.07l-0.11,3.39z" fill="#fff" id="svg_75"/>
   <path d="m284,373.16a1.32,1.32 0 0 1 -1,-0.43l-8.56,-9.37l-9.24,8.44a1.31,1.31 0 0 1 -1.85,-0.08l-8.56,-9.37l-9.24,8.44a1.31,1.31 0 0 1 -1.85,-0.08l-8.57,-9.37l-9.23,8.44a1.33,1.33 0 0 1 -1,0.34a1.35,1.35 0 0 1 -0.91,-0.43l-8.56,-9.36l-9.23,8.43a1.32,1.32 0 0 1 -1.86,-0.08a1.3,1.3 0 0 1 0.09,-1.85l10.2,-9.33a1.32,1.32 0 0 1 1.86,0.08l8.56,9.37l9.23,-8.44a1.37,1.37 0 0 1 0.95,-0.34a1.33,1.33 0 0 1 0.91,0.43l8.56,9.37l9.24,-8.44a1.3,1.3 0 0 1 1.85,0.08l8.56,9.37l9.24,-8.44a1.31,1.31 0 0 1 1.85,0.08l9.56,10.38a1.32,1.32 0 0 1 -1,2.2l0,-0.04z" fill="#fff" id="svg_76"/>
   <polygon fill="#407BFF" id="svg_77" points="125.75 414.67 119.49 411.68 113.91 384.51 116.94 381.18 125.75 414.67"/>
   <polygon fill="#407BFF" id="svg_78" points="125.75 414.67 134.06 409.81 126.94 387.43 116.94 381.18 125.75 414.67"/>
   <polygon id="svg_79" opacity="0.2" points="125.75 414.67 134.06 409.81 126.94 387.43 116.94 381.18 125.75 414.67"/>
   <path d="m262,419.61l-0.69,0a5,5 0 0 1 0.27,-10c7.7,0.25 24,-4.48 33.32,-13.52a5,5 0 0 1 2,-1.2c15.79,-4.74 21.66,4.83 21.9,5.24l-8.6,5.09a1,1 0 0 0 0.11,0.18c-0.09,-0.13 -2.33,-3 -9.45,-1.24c-11.69,10.66 -29.63,15.45 -38.86,15.45z" fill="#263238" id="svg_80"/>
   <polygon fill="#407BFF" id="svg_81" points="261.39 426.25 243.18 425.11 241.75 391.53 266.22 392.44 261.39 426.25"/>
   <polygon fill="#407BFF" id="svg_82" points="261.39 426.25 265.65 422.01 268.29 401.08 266.22 392.44 261.39 426.25"/>
   <polygon id="svg_83" opacity="0.2" points="261.39 426.25 265.65 422.01 268.29 401.08 266.22 392.44 261.39 426.25"/>
   <path d="m366.91,413.54a3,3 0 0 1 -1.81,-0.61c-10.4,-7.9 -24.45,-21.93 -29.84,-35.46a2.64,2.64 0 0 1 -0.17,-0.61c-2.63,-15.64 -5.14,-48.55 -5.25,-49.94a3,3 0 1 1 6,-0.45c0,0.33 2.57,33.56 5.13,49.07c5.38,13.16 20,26.67 27.78,32.61a3,3 0 0 1 -1.82,5.39l-0.02,0z" fill="#263238" id="svg_84"/>
   <path d="m380.78,415.05c-2.32,0 -4.95,-1.05 -7.82,-3.12a3,3 0 0 1 3.52,-4.86c2.48,1.79 3.83,2 4.3,2a3,3 0 0 1 0,6l0,-0.02z" fill="#263238" id="svg_85"/>
   <path d="m373.8,411.84c3.21,-9.53 16.37,-7.65 20.91,-6.23a47.77,47.77 0 0 1 11.07,4.8c2.45,1.6 2.49,4.29 -0.78,5.82c-4,1.88 -14.16,0.21 -14.16,0.21c5.24,2.29 0,6 -9.21,2.36c-2.99,-1.18 -8.96,-3.46 -7.83,-6.96z" fill="#407BFF" id="svg_86"/>
   <path d="m341.86,331c-1.19,8.1 -7.9,14.07 -13.36,13.27s-5.68,-8 -4.49,-16.14s3.35,-14 8.81,-13.2s10.23,8 9.04,16.07z" fill="#263238" id="svg_87"/>
   <circle cx="209.88" cy="297.88" fill="#263238" id="svg_88" r="0.82"/>
   <path d="m218.21,303.78a0.82,0.82 0 1 1 -0.82,-0.82a0.82,0.82 0 0 1 0.82,0.82z" fill="#263238" id="svg_89"/>
   <path d="m219.13,400.68a0.82,0.82 0 1 1 -0.82,-0.82a0.82,0.82 0 0 1 0.82,0.82z" fill="#263238" id="svg_90"/>
   <path d="m226.64,406.59a0.82,0.82 0 1 1 -0.82,-0.82a0.82,0.82 0 0 1 0.82,0.82z" fill="#263238" id="svg_91"/>
  </g>
  <g id="freepik--robot-parts--inject-5">
   <path d="m82.51,416.42a9.62,9.62 0 0 1 -7.33,-3.95a0.5,0.5 0 1 1 0.82,-0.57c1.87,2.7 6,4.13 7.8,3.28a1.3,1.3 0 0 0 0.47,-0.34a6.05,6.05 0 0 1 -3.52,-4.48c-0.23,-1.27 -0.41,-3 0.63,-3.22c1.44,-0.32 3.32,3.15 4,5.78a3.78,3.78 0 0 1 0.13,1.34a4.26,4.26 0 0 0 1.78,0.14a1.94,1.94 0 0 0 1.38,-0.74a5.86,5.86 0 0 1 -2.31,-4.19c-0.38,-2.74 -0.09,-3.21 0.21,-3.45a0.66,0.66 0 0 1 0.69,-0.07c1.07,0.45 2.36,4.33 2.61,6.53a2.66,2.66 0 0 1 0,0.69a3.91,3.91 0 0 0 1.35,0.26a4.29,4.29 0 0 0 2.41,-0.63c-0.14,-0.09 -0.27,-0.19 -0.4,-0.29c-1,-0.89 -1.46,-2.31 -1.28,-4.33c0.14,-1.57 0.49,-2.43 1.12,-2.7a1.13,1.13 0 0 1 1.21,0.24a6.92,6.92 0 0 1 1.73,5.56a3,3 0 0 1 -0.51,1.15c1.84,0.32 4.42,-0.2 6.65,-0.75a0.5,0.5 0 0 1 0.24,1c-2.71,0.67 -5.63,1.22 -7.69,0.62a5.69,5.69 0 0 1 -3.5,1.16a4.83,4.83 0 0 1 -1.64,-0.31a2.8,2.8 0 0 1 -2.12,1.27a5.33,5.33 0 0 1 -2.24,-0.19a2.21,2.21 0 0 1 -1,0.89a4.16,4.16 0 0 1 -1.69,0.3zm-0.86,-8.28a4.32,4.32 0 0 0 0.08,2.05a5.05,5.05 0 0 0 2.84,3.7a3.21,3.21 0 0 0 -0.12,-0.7c-0.78,-2.86 -2.28,-4.83 -2.8,-5.05zm5.57,-0.87a14.19,14.19 0 0 0 0.17,2.06a5.18,5.18 0 0 0 1.52,3.22a15.72,15.72 0 0 0 -1.69,-5.28zm6.29,-0.87l0,0s-0.38,0.19 -0.52,1.86s0.15,2.82 0.93,3.49a3.06,3.06 0 0 0 0.6,0.38a2.24,2.24 0 0 0 0.54,-1a6.26,6.26 0 0 0 -1.19,-4.43c-0.21,-0.26 -0.33,-0.3 -0.36,-0.3z" fill="#263238" id="svg_92"/>
   <polygon fill="#263238" id="svg_93" points="228.87 423.98 231.58 419.28 228.87 414.58 225.97 414.58 227.61 419.28 225.97 423.98 228.87 423.98"/>
   <path d="m226.16,421.73a2.45,2.45 0 1 1 0,-4.89l-4.6,-0.92l-1.23,3.72l2.06,3.14l3.77,-1.05z" fill="#263238" id="svg_94"/>
   <path d="m226.56,414.58l-5.43,0l-2.71,4.7l2.71,4.7l5.43,0l2.71,-4.7l-2.71,-4.7zm-2.71,7.15a2.45,2.45 0 1 1 2.44,-2.45a2.45,2.45 0 0 1 -2.44,2.45z" fill="#407BFF" id="svg_95"/>
   <polygon fill="#407BFF" id="svg_96" points="417.89 414.26 415.88 410.77 417.89 407.28 420.04 407.28 418.83 410.77 420.04 414.26 417.89 414.26"/>
   <path d="m419.9,412.59a1.82,1.82 0 1 0 0,-3.63l3.42,-0.68l0.91,2.76l-1.52,2.33l-2.81,-0.78z" fill="#407BFF" id="svg_97"/>
   <path d="m419.61,407.28l4,0l2,3.49l-2,3.49l-4,0l-2,-3.49l2,-3.49zm2,5.31a1.82,1.82 0 1 0 -1.81,-1.82a1.81,1.81 0 0 0 1.82,1.82l-0.01,0z" fill="#263238" id="svg_98"/>
   <path d="m343,418.9l4.52,0a2.14,2.14 0 0 0 2.13,-2.14l0,0a2.14,2.14 0 0 0 -2.13,-2.14l-4.52,0a2.14,2.14 0 0 0 -2.14,2.14l0,0a2.14,2.14 0 0 0 2.14,2.14z" fill="#263238" id="svg_99"/>
   <path d="m335.73,414.86a4.46,4.46 0 1 1 2,6.18a4.61,4.61 0 0 1 -2,-6.18z" fill="#407BFF" id="svg_100"/>
   <rect fill="#263238" height="10.1" id="svg_101" transform="translate(469.33 938.61) rotate(-154.76)" width="1.37" x="339.07" y="411.71"/>
  </g>
 </g>
</svg>